<svg height="3614" width="720" xmlns="http://www.w3.org/2000/svg">
<rect height="3614" fill="#555" width="720"></rect>
<text fill="#7f7" font-family="Courier New" font-size="12" xml:space="preserve">
<tspan x="10" y="26">26 megabytes installed</tspan>
<tspan x="10" y="42"></tspan>
<tspan x="10" y="58">node_modules</tspan>
<tspan x="10" y="74">└─┬ gulp-vue-module@0.1.2 </tspan>
<tspan x="10" y="90">  ├─┬ gulp-util@3.0.8 </tspan>
<tspan x="10" y="106">  │ ├── array-differ@1.0.0 </tspan>
<tspan x="10" y="122">  │ ├── array-uniq@1.0.3 </tspan>
<tspan x="10" y="138">  │ ├── beeper@1.1.1 </tspan>
<tspan x="10" y="154">  │ ├─┬ chalk@1.1.3 </tspan>
<tspan x="10" y="170">  │ │ ├── ansi-styles@2.2.1 </tspan>
<tspan x="10" y="186">  │ │ ├── escape-string-regexp@1.0.5 </tspan>
<tspan x="10" y="202">  │ │ ├─┬ has-ansi@2.0.0 </tspan>
<tspan x="10" y="218">  │ │ │ └── ansi-regex@2.1.1 </tspan>
<tspan x="10" y="234">  │ │ ├── strip-ansi@3.0.1 </tspan>
<tspan x="10" y="250">  │ │ └── supports-color@2.0.0 </tspan>
<tspan x="10" y="266">  │ ├── dateformat@2.0.0 </tspan>
<tspan x="10" y="282">  │ ├─┬ fancy-log@1.3.0 </tspan>
<tspan x="10" y="298">  │ │ └── time-stamp@1.0.1 </tspan>
<tspan x="10" y="314">  │ ├─┬ gulplog@1.0.0 </tspan>
<tspan x="10" y="330">  │ │ └── glogg@1.0.0 </tspan>
<tspan x="10" y="346">  │ ├─┬ has-gulplog@0.1.0 </tspan>
<tspan x="10" y="362">  │ │ └── sparkles@1.0.0 </tspan>
<tspan x="10" y="378">  │ ├── lodash._reescape@3.0.0 </tspan>
<tspan x="10" y="394">  │ ├── lodash._reevaluate@3.0.0 </tspan>
<tspan x="10" y="410">  │ ├── lodash._reinterpolate@3.0.0 </tspan>
<tspan x="10" y="426">  │ ├─┬ lodash.template@3.6.2 </tspan>
<tspan x="10" y="442">  │ │ ├── lodash._basecopy@3.0.1 </tspan>
<tspan x="10" y="458">  │ │ ├── lodash._basetostring@3.0.1 </tspan>
<tspan x="10" y="474">  │ │ ├── lodash._basevalues@3.0.0 </tspan>
<tspan x="10" y="490">  │ │ ├── lodash._isiterateecall@3.0.9 </tspan>
<tspan x="10" y="506">  │ │ ├─┬ lodash.escape@3.2.0 </tspan>
<tspan x="10" y="522">  │ │ │ └── lodash._root@3.0.1 </tspan>
<tspan x="10" y="538">  │ │ ├─┬ lodash.keys@3.1.2 </tspan>
<tspan x="10" y="554">  │ │ │ ├── lodash._getnative@3.9.1 </tspan>
<tspan x="10" y="570">  │ │ │ ├── lodash.isarguments@3.1.0 </tspan>
<tspan x="10" y="586">  │ │ │ └── lodash.isarray@3.0.4 </tspan>
<tspan x="10" y="602">  │ │ ├── lodash.restparam@3.6.1 </tspan>
<tspan x="10" y="618">  │ │ └── lodash.templatesettings@3.1.1 </tspan>
<tspan x="10" y="634">  │ ├── minimist@1.2.0 </tspan>
<tspan x="10" y="650">  │ ├─┬ multipipe@0.1.2 </tspan>
<tspan x="10" y="666">  │ │ └─┬ duplexer2@0.0.2 </tspan>
<tspan x="10" y="682">  │ │   └─┬ readable-stream@1.1.14 </tspan>
<tspan x="10" y="698">  │ │     ├── isarray@0.0.1 </tspan>
<tspan x="10" y="714">  │ │     └── string_decoder@0.10.31 </tspan>
<tspan x="10" y="730">  │ ├── object-assign@3.0.0 </tspan>
<tspan x="10" y="746">  │ ├── replace-ext@0.0.1 </tspan>
<tspan x="10" y="762">  │ └─┬ vinyl@0.5.3 </tspan>
<tspan x="10" y="778">  │   ├── clone@1.0.2 </tspan>
<tspan x="10" y="794">  │   └── clone-stats@0.0.1 </tspan>
<tspan x="10" y="810">  ├─┬ node-sass@3.13.1 </tspan>
<tspan x="10" y="826">  │ ├── async-foreach@0.1.3 </tspan>
<tspan x="10" y="842">  │ ├─┬ cross-spawn@3.0.1 </tspan>
<tspan x="10" y="858">  │ │ ├─┬ lru-cache@4.0.2 </tspan>
<tspan x="10" y="874">  │ │ │ ├── pseudomap@1.0.2 </tspan>
<tspan x="10" y="890">  │ │ │ └── yallist@2.1.2 </tspan>
<tspan x="10" y="906">  │ │ └─┬ which@1.2.14 </tspan>
<tspan x="10" y="922">  │ │   └── isexe@2.0.0 </tspan>
<tspan x="10" y="938">  │ ├─┬ gaze@1.1.2 </tspan>
<tspan x="10" y="954">  │ │ └── globule@1.1.0 </tspan>
<tspan x="10" y="970">  │ ├── get-stdin@4.0.1 </tspan>
<tspan x="10" y="986">  │ ├─┬ glob@7.1.1 </tspan>
<tspan x="10" y="1002">  │ │ ├── fs.realpath@1.0.0 </tspan>
<tspan x="10" y="1018">  │ │ ├─┬ inflight@1.0.6 </tspan>
<tspan x="10" y="1034">  │ │ │ └── wrappy@1.0.2 </tspan>
<tspan x="10" y="1050">  │ │ ├── inherits@2.0.3 </tspan>
<tspan x="10" y="1066">  │ │ ├─┬ minimatch@3.0.3 </tspan>
<tspan x="10" y="1082">  │ │ │ └─┬ brace-expansion@1.1.7 </tspan>
<tspan x="10" y="1098">  │ │ │   ├── balanced-match@0.4.2 </tspan>
<tspan x="10" y="1114">  │ │ │   └── concat-map@0.0.1 </tspan>
<tspan x="10" y="1130">  │ │ ├── once@1.4.0 </tspan>
<tspan x="10" y="1146">  │ │ └── path-is-absolute@1.0.1 </tspan>
<tspan x="10" y="1162">  │ ├── in-publish@2.0.0 </tspan>
<tspan x="10" y="1178">  │ ├── lodash.assign@4.2.0 </tspan>
<tspan x="10" y="1194">  │ ├── lodash.clonedeep@4.5.0 </tspan>
<tspan x="10" y="1210">  │ ├─┬ meow@3.7.0 </tspan>
<tspan x="10" y="1226">  │ │ ├─┬ camelcase-keys@2.1.0 </tspan>
<tspan x="10" y="1242">  │ │ │ └── camelcase@2.1.1 </tspan>
<tspan x="10" y="1258">  │ │ ├── decamelize@1.2.0 </tspan>
<tspan x="10" y="1274">  │ │ ├─┬ loud-rejection@1.6.0 </tspan>
<tspan x="10" y="1290">  │ │ │ ├─┬ currently-unhandled@0.4.1 </tspan>
<tspan x="10" y="1306">  │ │ │ │ └── array-find-index@1.0.2 </tspan>
<tspan x="10" y="1322">  │ │ │ └── signal-exit@3.0.2 </tspan>
<tspan x="10" y="1338">  │ │ ├── map-obj@1.0.1 </tspan>
<tspan x="10" y="1354">  │ │ ├─┬ normalize-package-data@2.3.8 </tspan>
<tspan x="10" y="1370">  │ │ │ ├── hosted-git-info@2.4.2 </tspan>
<tspan x="10" y="1386">  │ │ │ ├─┬ is-builtin-module@1.0.0 </tspan>
<tspan x="10" y="1402">  │ │ │ │ └── builtin-modules@1.1.1 </tspan>
<tspan x="10" y="1418">  │ │ │ └─┬ validate-npm-package-license@3.0.1 </tspan>
<tspan x="10" y="1434">  │ │ │   ├─┬ spdx-correct@1.0.2 </tspan>
<tspan x="10" y="1450">  │ │ │   │ └── spdx-license-ids@1.2.2 </tspan>
<tspan x="10" y="1466">  │ │ │   └── spdx-expression-parse@1.0.4 </tspan>
<tspan x="10" y="1482">  │ │ ├── object-assign@4.1.1 </tspan>
<tspan x="10" y="1498">  │ │ ├─┬ read-pkg-up@1.0.1 </tspan>
<tspan x="10" y="1514">  │ │ │ ├─┬ find-up@1.1.2 </tspan>
<tspan x="10" y="1530">  │ │ │ │ ├── path-exists@2.1.0 </tspan>
<tspan x="10" y="1546">  │ │ │ │ └─┬ pinkie-promise@2.0.1 </tspan>
<tspan x="10" y="1562">  │ │ │ │   └── pinkie@2.0.4 </tspan>
<tspan x="10" y="1578">  │ │ │ └─┬ read-pkg@1.1.0 </tspan>
<tspan x="10" y="1594">  │ │ │   ├─┬ load-json-file@1.1.0 </tspan>
<tspan x="10" y="1610">  │ │ │   │ ├─┬ parse-json@2.2.0 </tspan>
<tspan x="10" y="1626">  │ │ │   │ │ └─┬ error-ex@1.3.1 </tspan>
<tspan x="10" y="1642">  │ │ │   │ │   └── is-arrayish@0.2.1 </tspan>
<tspan x="10" y="1658">  │ │ │   │ ├── pify@2.3.0 </tspan>
<tspan x="10" y="1674">  │ │ │   │ └─┬ strip-bom@2.0.0 </tspan>
<tspan x="10" y="1690">  │ │ │   │   └── is-utf8@0.2.1 </tspan>
<tspan x="10" y="1706">  │ │ │   └── path-type@1.1.0 </tspan>
<tspan x="10" y="1722">  │ │ ├─┬ redent@1.0.0 </tspan>
<tspan x="10" y="1738">  │ │ │ ├─┬ indent-string@2.1.0 </tspan>
<tspan x="10" y="1754">  │ │ │ │ └─┬ repeating@2.0.1 </tspan>
<tspan x="10" y="1770">  │ │ │ │   └── is-finite@1.0.2 </tspan>
<tspan x="10" y="1786">  │ │ │ └── strip-indent@1.0.1 </tspan>
<tspan x="10" y="1802">  │ │ └── trim-newlines@1.0.0 </tspan>
<tspan x="10" y="1818">  │ ├─┬ mkdirp@0.5.1 </tspan>
<tspan x="10" y="1834">  │ │ └── minimist@0.0.8 </tspan>
<tspan x="10" y="1850">  │ ├── nan@2.6.2 </tspan>
<tspan x="10" y="1866">  │ ├─┬ node-gyp@3.6.0 </tspan>
<tspan x="10" y="1882">  │ │ ├── fstream@1.0.11 </tspan>
<tspan x="10" y="1898">  │ │ ├── graceful-fs@4.1.11 </tspan>
<tspan x="10" y="1914">  │ │ ├─┬ nopt@3.0.6 </tspan>
<tspan x="10" y="1930">  │ │ │ └── abbrev@1.1.0 </tspan>
<tspan x="10" y="1946">  │ │ ├─┬ osenv@0.1.4 </tspan>
<tspan x="10" y="1962">  │ │ │ ├── os-homedir@1.0.2 </tspan>
<tspan x="10" y="1978">  │ │ │ └── os-tmpdir@1.0.2 </tspan>
<tspan x="10" y="1994">  │ │ ├── rimraf@2.6.1 </tspan>
<tspan x="10" y="2010">  │ │ ├── semver@5.3.0 </tspan>
<tspan x="10" y="2026">  │ │ └─┬ tar@2.2.1 </tspan>
<tspan x="10" y="2042">  │ │   └── block-stream@0.0.9 </tspan>
<tspan x="10" y="2058">  │ ├─┬ npmlog@4.0.2 </tspan>
<tspan x="10" y="2074">  │ │ ├─┬ are-we-there-yet@1.1.4 </tspan>
<tspan x="10" y="2090">  │ │ │ ├── delegates@1.0.0 </tspan>
<tspan x="10" y="2106">  │ │ │ └─┬ readable-stream@2.2.9 </tspan>
<tspan x="10" y="2122">  │ │ │   ├── isarray@1.0.0 </tspan>
<tspan x="10" y="2138">  │ │ │   └── string_decoder@1.0.0 </tspan>
<tspan x="10" y="2154">  │ │ ├── console-control-strings@1.1.0 </tspan>
<tspan x="10" y="2170">  │ │ ├─┬ gauge@2.7.3 </tspan>
<tspan x="10" y="2186">  │ │ │ ├── aproba@1.1.1 </tspan>
<tspan x="10" y="2202">  │ │ │ ├── has-unicode@2.0.1 </tspan>
<tspan x="10" y="2218">  │ │ │ ├── object-assign@4.1.1 </tspan>
<tspan x="10" y="2234">  │ │ │ ├─┬ string-width@1.0.2 </tspan>
<tspan x="10" y="2250">  │ │ │ │ ├── code-point-at@1.1.0 </tspan>
<tspan x="10" y="2266">  │ │ │ │ └─┬ is-fullwidth-code-point@1.0.0 </tspan>
<tspan x="10" y="2282">  │ │ │ │   └── number-is-nan@1.0.1 </tspan>
<tspan x="10" y="2298">  │ │ │ └── wide-align@1.1.0 </tspan>
<tspan x="10" y="2314">  │ │ └── set-blocking@2.0.0 </tspan>
<tspan x="10" y="2330">  │ ├─┬ request@2.81.0 </tspan>
<tspan x="10" y="2346">  │ │ ├── aws-sign2@0.6.0 </tspan>
<tspan x="10" y="2362">  │ │ ├── aws4@1.6.0 </tspan>
<tspan x="10" y="2378">  │ │ ├── caseless@0.12.0 </tspan>
<tspan x="10" y="2394">  │ │ ├─┬ combined-stream@1.0.5 </tspan>
<tspan x="10" y="2410">  │ │ │ └── delayed-stream@1.0.0 </tspan>
<tspan x="10" y="2426">  │ │ ├── extend@3.0.0 </tspan>
<tspan x="10" y="2442">  │ │ ├── forever-agent@0.6.1 </tspan>
<tspan x="10" y="2458">  │ │ ├─┬ form-data@2.1.4 </tspan>
<tspan x="10" y="2474">  │ │ │ └── asynckit@0.4.0 </tspan>
<tspan x="10" y="2490">  │ │ ├─┬ har-validator@4.2.1 </tspan>
<tspan x="10" y="2506">  │ │ │ ├─┬ ajv@4.11.7 </tspan>
<tspan x="10" y="2522">  │ │ │ │ ├── co@4.6.0 </tspan>
<tspan x="10" y="2538">  │ │ │ │ └─┬ json-stable-stringify@1.0.1 </tspan>
<tspan x="10" y="2554">  │ │ │ │   └── jsonify@0.0.0 </tspan>
<tspan x="10" y="2570">  │ │ │ └── har-schema@1.0.5 </tspan>
<tspan x="10" y="2586">  │ │ ├─┬ hawk@3.1.3 </tspan>
<tspan x="10" y="2602">  │ │ │ ├── boom@2.10.1 </tspan>
<tspan x="10" y="2618">  │ │ │ ├── cryptiles@2.0.5 </tspan>
<tspan x="10" y="2634">  │ │ │ ├── hoek@2.16.3 </tspan>
<tspan x="10" y="2650">  │ │ │ └── sntp@1.0.9 </tspan>
<tspan x="10" y="2666">  │ │ ├─┬ http-signature@1.1.1 </tspan>
<tspan x="10" y="2682">  │ │ │ ├── assert-plus@0.2.0 </tspan>
<tspan x="10" y="2698">  │ │ │ ├─┬ jsprim@1.4.0 </tspan>
<tspan x="10" y="2714">  │ │ │ │ ├── assert-plus@1.0.0 </tspan>
<tspan x="10" y="2730">  │ │ │ │ ├── extsprintf@1.0.2 </tspan>
<tspan x="10" y="2746">  │ │ │ │ ├── json-schema@0.2.3 </tspan>
<tspan x="10" y="2762">  │ │ │ │ └── verror@1.3.6 </tspan>
<tspan x="10" y="2778">  │ │ │ └─┬ sshpk@1.13.0 </tspan>
<tspan x="10" y="2794">  │ │ │   ├── asn1@0.2.3 </tspan>
<tspan x="10" y="2810">  │ │ │   ├── assert-plus@1.0.0 </tspan>
<tspan x="10" y="2826">  │ │ │   ├── bcrypt-pbkdf@1.0.1 </tspan>
<tspan x="10" y="2842">  │ │ │   ├─┬ dashdash@1.14.1 </tspan>
<tspan x="10" y="2858">  │ │ │   │ └── assert-plus@1.0.0 </tspan>
<tspan x="10" y="2874">  │ │ │   ├── ecc-jsbn@0.1.1 </tspan>
<tspan x="10" y="2890">  │ │ │   ├─┬ getpass@0.1.6 </tspan>
<tspan x="10" y="2906">  │ │ │   │ └── assert-plus@1.0.0 </tspan>
<tspan x="10" y="2922">  │ │ │   ├── jodid25519@1.0.2 </tspan>
<tspan x="10" y="2938">  │ │ │   ├── jsbn@0.1.1 </tspan>
<tspan x="10" y="2954">  │ │ │   └── tweetnacl@0.14.5 </tspan>
<tspan x="10" y="2970">  │ │ ├── is-typedarray@1.0.0 </tspan>
<tspan x="10" y="2986">  │ │ ├── isstream@0.1.2 </tspan>
<tspan x="10" y="3002">  │ │ ├── json-stringify-safe@5.0.1 </tspan>
<tspan x="10" y="3018">  │ │ ├─┬ mime-types@2.1.15 </tspan>
<tspan x="10" y="3034">  │ │ │ └── mime-db@1.27.0 </tspan>
<tspan x="10" y="3050">  │ │ ├── oauth-sign@0.8.2 </tspan>
<tspan x="10" y="3066">  │ │ ├── performance-now@0.2.0 </tspan>
<tspan x="10" y="3082">  │ │ ├── qs@6.4.0 </tspan>
<tspan x="10" y="3098">  │ │ ├── safe-buffer@5.0.1 </tspan>
<tspan x="10" y="3114">  │ │ ├── stringstream@0.0.5 </tspan>
<tspan x="10" y="3130">  │ │ ├─┬ tough-cookie@2.3.2 </tspan>
<tspan x="10" y="3146">  │ │ │ └── punycode@1.4.1 </tspan>
<tspan x="10" y="3162">  │ │ ├── tunnel-agent@0.6.0 </tspan>
<tspan x="10" y="3178">  │ │ └── uuid@3.0.1 </tspan>
<tspan x="10" y="3194">  │ └─┬ sass-graph@2.1.2 </tspan>
<tspan x="10" y="3210">  │   ├── lodash@4.16.6 </tspan>
<tspan x="10" y="3226">  │   └─┬ yargs@4.8.1 </tspan>
<tspan x="10" y="3242">  │     ├─┬ cliui@3.2.0 </tspan>
<tspan x="10" y="3258">  │     │ └── wrap-ansi@2.1.0 </tspan>
<tspan x="10" y="3274">  │     ├── get-caller-file@1.0.2 </tspan>
<tspan x="10" y="3290">  │     ├─┬ os-locale@1.4.0 </tspan>
<tspan x="10" y="3306">  │     │ └─┬ lcid@1.0.0 </tspan>
<tspan x="10" y="3322">  │     │   └── invert-kv@1.0.0 </tspan>
<tspan x="10" y="3338">  │     ├── require-directory@2.1.1 </tspan>
<tspan x="10" y="3354">  │     ├── require-main-filename@1.0.1 </tspan>
<tspan x="10" y="3370">  │     ├── which-module@1.0.0 </tspan>
<tspan x="10" y="3386">  │     ├── window-size@0.2.0 </tspan>
<tspan x="10" y="3402">  │     ├── y18n@3.2.1 </tspan>
<tspan x="10" y="3418">  │     └─┬ yargs-parser@2.4.1 </tspan>
<tspan x="10" y="3434">  │       └── camelcase@3.0.0 </tspan>
<tspan x="10" y="3450">  ├── parse5@2.2.3 </tspan>
<tspan x="10" y="3466">  └─┬ through2@2.0.3 </tspan>
<tspan x="10" y="3482">    ├─┬ readable-stream@2.2.9 </tspan>
<tspan x="10" y="3498">    │ ├── buffer-shims@1.0.0 </tspan>
<tspan x="10" y="3514">    │ ├── core-util-is@1.0.2 </tspan>
<tspan x="10" y="3530">    │ ├── isarray@1.0.0 </tspan>
<tspan x="10" y="3546">    │ ├── process-nextick-args@1.0.7 </tspan>
<tspan x="10" y="3562">    │ ├── string_decoder@1.0.0 </tspan>
<tspan x="10" y="3578">    │ └── util-deprecate@1.0.2 </tspan>
<tspan x="10" y="3594">    └── xtend@4.0.1</tspan>
</text>
</svg>
